<svg width="78" height="48" viewBox="0 0 78 48" fill="none" xmlns="http://www.w3.org/2000/svg">
<path d="M58.3917 11.959C58.5574 7.93533 58.7202 3.98635 58.8801 0.037363C58.9972 0.0258667 59.1143 0.0114963 59.2314 0C59.3171 0.264415 59.4685 0.528831 59.4742 0.79612C59.5028 2.08946 59.4399 3.38567 59.5028 4.67613C59.6113 6.98689 59.7884 9.29477 59.9483 11.824C60.6252 11.824 61.1679 11.8038 61.7106 11.8268C65.9806 11.9993 70.2534 12.1056 74.5148 12.4045C75.9058 12.5022 77.5538 12.9161 77.9337 14.54C78.3078 16.1408 77.0283 17.2157 75.8886 18.0578C73.7437 19.6415 71.553 21.1791 69.268 22.5471C62.9502 26.3381 57.7748 31.3447 53.4619 37.2854C52.7622 38.2511 52.0339 38.7455 50.86 38.4552C47.9581 37.7367 44.9962 37.2078 42.1686 36.2651C36.4848 34.3682 30.961 31.9339 24.9373 31.2499C17.3285 30.3848 9.9995 30.9998 3.49313 35.6328C3.38174 35.7133 3.23322 35.7392 2.99901 35.834C1.89367 34.6585 1.77371 33.1065 1.54236 31.6292C1.50523 31.3936 2.10217 30.9136 2.4849 30.7814C8.32007 28.735 14.161 26.7146 20.0133 24.7228C21.3642 24.263 22.7809 23.9986 24.1262 23.5272C26.8138 22.5874 28.7474 20.7796 30.0184 18.2044C30.2298 17.7733 30.7468 17.3709 31.2123 17.21C38.9926 14.5112 47.047 13.1518 55.2099 12.3442C55.8726 12.2781 56.5352 12.2148 57.1978 12.1401C57.4749 12.1142 57.7548 12.0596 58.3917 11.959Z" fill="#004E92"/>
<path d="M69.8735 24.5475C71.9328 27.2204 72.2241 29.8876 71.5015 32.6122C70.2077 37.4924 66.8145 40.6768 62.4617 42.7749C55.8582 45.9594 48.992 45.8042 42.1257 43.7176C39.2153 42.8324 36.382 41.6799 33.5344 40.5906C28.2961 38.5874 22.9637 37.0957 17.2941 37.1101C11.6846 37.1245 6.44639 38.3805 1.73656 41.5563C1.3424 41.8207 0.919689 42.0449 0.502687 42.2748C0.434139 42.3122 0.32846 42.2806 0 42.2806C1.2967 39.7658 3.09038 37.866 5.33819 36.4146C10.3936 33.1496 16.0003 32.3075 21.8926 32.6409C27.6278 32.9657 33.0203 34.6298 38.3327 36.6675C42.4742 38.254 46.6185 39.8606 51.1056 40.1135C57.4663 40.4728 63.0787 38.7886 67.3515 33.7446C69.3651 31.3677 70.2648 28.623 69.7821 25.4816C69.7564 25.312 69.8135 25.1281 69.8735 24.5475Z" fill="#B3CDE0"/>
<path d="M44.6735 48C43.531 47.8592 42.3485 47.8621 41.2546 47.5545C36.9589 46.3388 32.6375 45.1777 28.4218 43.709C21.4128 41.2689 14.3266 40.6682 7.06047 42.1225C6.84626 42.1656 6.62348 42.1628 6.38641 42.0708C9.50536 40.5533 12.8185 39.829 16.2516 39.6738C21.2814 39.4468 26.0483 40.5561 30.721 42.4128C35.0938 44.1487 39.5723 45.626 43.9994 47.2211C44.2593 47.3131 44.4992 47.4568 44.7506 47.5775C44.7277 47.7184 44.6992 47.8592 44.6735 48Z" fill="#B3CDE0"/>
<path d="M18.0653 14.7124C18.0653 12.9765 18.0396 11.6084 18.0853 10.2403C18.0939 9.9558 18.3024 9.57642 18.5394 9.4126C21.0186 7.67378 23.5235 5.96945 26.3282 4.04669C26.3282 5.97232 26.3539 7.56457 26.3054 9.15681C26.2968 9.42697 26.0369 9.78623 25.7913 9.94143C23.3435 11.4791 20.8701 12.9851 18.0653 14.7124Z" fill="#3CB371"/>
<path d="M26.3454 10.3409C26.3454 12.2235 26.3854 13.6979 26.3169 15.1694C26.2997 15.5229 26.017 16.0086 25.7142 16.1868C23.2979 17.5951 20.8444 18.9431 18.0825 20.4893C18.0825 18.7706 18.0625 17.3278 18.1025 15.8879C18.1082 15.658 18.351 15.3591 18.5652 15.2211C21.0415 13.649 23.5321 12.0999 26.3454 10.3409Z" fill="#3CB371"/>
<path d="M38.3612 10.0737C34.5625 9.97306 34.6168 9.97306 34.5854 6.12179C34.5739 4.81121 35.0224 4.44621 36.2391 4.58129C37.6986 4.74224 39.1781 4.72212 40.629 4.92905C41.006 4.98366 41.3574 5.54698 41.6173 5.9436C41.7486 6.14479 41.6458 6.50117 41.6487 6.78858C41.663 10.1599 41.663 10.1599 38.3612 10.0737Z" fill="#3CB371"/>
<path d="M30.8581 9.76038C26.2311 9.57644 27.1736 10.0018 27.0851 5.85451C27.0451 3.96911 27.1193 3.94612 29.0273 4.10994C30.0212 4.19616 31.018 4.26801 32.0148 4.31687C33.9999 4.41172 33.9999 4.4031 34.0056 6.33448C34.0056 6.42932 34.0056 6.52704 34.0056 6.62188C34.0084 9.83511 34.0084 9.8351 30.8581 9.76038Z" fill="#3CB371"/>
<path d="M30.5154 10.4846C30.7982 10.5076 31.0867 10.5105 31.3666 10.5565C32.2177 10.7002 33.7172 10.7059 33.8 11.0451C34.0999 12.3097 34.0971 13.718 33.8515 15.0027C33.7686 15.4395 32.649 15.8994 31.9749 15.9511C30.6125 16.0575 29.2244 15.9368 27.8563 15.8017C27.5793 15.7729 27.2365 15.3073 27.1252 14.9739C26.9938 14.5859 27.0652 14.1232 27.0766 13.6921C27.1794 10.0162 26.2997 10.2461 30.5154 10.4846Z" fill="#3CB371"/>
<path d="M42.2657 4.99515C44.4878 5.15322 46.43 5.25382 48.3579 5.4665C48.6607 5.50099 48.9063 6.04419 49.1748 6.35746C49.1977 6.3862 49.1805 6.44943 49.1834 6.49829C49.4918 10.5163 49.4918 10.5163 45.516 10.3783C42.26 10.2662 42.26 10.2662 42.2657 6.92078C42.2657 6.36034 42.2657 5.79989 42.2657 4.99515Z" fill="#3CB371"/>
<path d="M18.331 24.5015C17.7369 21.8832 17.8426 21.6217 19.7734 20.4864C21.8527 19.2649 23.9377 18.0463 26.3254 16.6495C26.3254 18.3251 26.374 19.6817 26.2912 21.0325C26.2712 21.3688 25.8856 21.8545 25.56 21.9752C23.1751 22.8547 20.7616 23.6623 18.331 24.5015Z" fill="#3CB371"/>
<path d="M8.56563 18.9373C7.94298 19.2707 7.32033 19.6041 6.68912 19.9404C5.86368 17.69 6.24356 16.4167 8.05437 15.1809C9.53673 14.1663 11.0191 13.1518 12.5043 12.1372C12.6442 12.1861 12.7813 12.235 12.9213 12.2838C12.8213 13.6605 12.7214 15.0401 12.6214 16.4167C11.2676 17.2617 9.9166 18.101 8.56563 18.9373Z" fill="#3CB371"/>
<path d="M12.8672 16.9973C13.5726 20.2077 12.1217 22.0816 9.20841 23.1421C8.33156 23.4611 7.54611 24.0359 6.70925 24.4958C5.77528 22.1592 6.24369 21.0526 8.85995 19.219C10.1966 18.4803 11.5333 17.7388 12.8672 16.9973Z" fill="#3CB371"/>
<path d="M34.6455 15.1694C34.6455 13.7783 34.5969 12.5913 34.6826 11.4158C34.7026 11.1457 35.191 10.6916 35.4595 10.6944C37.2617 10.7117 39.0668 10.7893 40.8634 10.956C41.149 10.9818 41.6088 11.5768 41.5888 11.8814C41.5546 12.4649 41.3546 13.4306 41.0062 13.5398C38.9897 14.1807 36.9104 14.6147 34.6455 15.1694Z" fill="#3CB371"/>
<path d="M6.61784 27.9935C6.11801 26.3352 6.33508 25.2948 7.80029 24.5734C9.40832 23.783 10.9135 22.78 12.81 21.6706C12.81 23.1536 12.8357 24.3492 12.7843 25.5419C12.7758 25.7431 12.4616 26.0248 12.2331 26.1053C10.4108 26.7433 8.57432 27.3411 6.61784 27.9935Z" fill="#3CB371"/>
<path d="M13.3926 12.1142C14.6293 12.1142 15.6661 12.0568 16.6886 12.1516C16.9685 12.1775 17.2855 12.6316 17.4341 12.9592C17.5597 13.238 17.4769 13.6174 17.474 13.9508C17.4312 16.5892 17.8568 16.365 15.0177 16.3391C13.8296 16.3276 13.2498 15.9483 13.3811 14.6664C13.4611 13.8674 13.3926 13.0512 13.3926 12.1142Z" fill="#3CB371"/>
<path d="M17.4741 18.8654C17.4455 20.1473 17.8425 21.3458 15.9689 21.2337C13.3983 21.0814 13.3469 21.1848 13.4183 18.762C13.4412 18.0291 12.8128 16.8277 14.4722 16.845C17.4741 16.8737 17.4741 16.8306 17.4741 18.8654Z" fill="#3CB371"/>
<path d="M13.4098 25.7546C13.4098 24.5015 13.3527 23.4668 13.4441 22.4437C13.4698 22.1563 13.9182 21.6907 14.1896 21.6763C15.0778 21.6332 15.9947 21.6792 16.8601 21.8689C17.1286 21.9292 17.457 22.5788 17.4285 22.9294C17.3742 23.5588 17.2457 24.4986 16.8373 24.7142C15.869 25.2258 14.718 25.3896 13.4098 25.7546Z" fill="#3CB371"/>
<path d="M42.5598 13.238C41.9972 11.1831 42.1914 10.9359 43.9994 11.0508C45.3703 11.1371 46.747 11.1313 48.1151 11.2434C48.455 11.2721 48.7692 11.5883 49.0948 11.7751C48.812 11.9677 48.5521 12.2752 48.2465 12.3298C46.35 12.6632 44.4421 12.942 42.5598 13.238Z" fill="#3CB371"/>
<path d="M27.2194 20.314C26.651 16.9197 26.9109 16.4685 29.2815 16.7587C29.3758 18.3424 28.5875 19.7047 27.2194 20.314Z" fill="#3CB371"/>
</svg>
